<svg xmlns="http://www.w3.org/2000/svg" viewBox="0 0 800 600" role="img" aria-labelledby="title desc">
  <title id="title">Chicken BBQ</title>
  <desc id="desc">Stylized chicken platter illustration for menu cards.</desc>
  <defs>
    <linearGradient id="bg" x1="0" x2="1" y1="0" y2="1">
      <stop offset="0%" stop-color="#38210f" />
      <stop offset="100%" stop-color="#b76b26" />
    </linearGradient>
  </defs>
  <rect width="800" height="600" fill="url(#bg)" rx="36" />
  <circle cx="668" cy="98" r="88" fill="#ffe09e" fill-opacity=".18" />
  <ellipse cx="400" cy="362" rx="258" ry="136" fill="#17100a" />
  <ellipse cx="400" cy="342" rx="232" ry="112" fill="#322114" stroke="#9e6d32" stroke-width="8" />
  <path d="M265 318c0-70 52-119 123-119 52 0 102 26 128 72 31 54 27 113-8 143-30 25-84 31-136 18-71-18-107-56-107-114z" fill="#d98d31" />
  <path d="M310 260c29 15 56 18 83 11M395 252c24 12 46 16 68 11M304 340c50 23 104 27 162 10" stroke="#ffe3b0" stroke-width="8" stroke-linecap="round" opacity=".84" />
  <text x="70" y="108" fill="#f7e1bc" font-family="Arial, sans-serif" font-size="30" letter-spacing="5">HOUSE FAVORITES</text>
  <text x="70" y="160" fill="#fff2d8" font-family="Georgia, serif" font-size="64" font-weight="700">Chicken Grill</text>
  <text x="70" y="516" fill="#f6d7a2" font-family="Arial, sans-serif" font-size="28">Smoky herbs and spicy glaze</text>
</svg>
